<?xml version="1.0" encoding="utf-8" ?>
<svg baseProfile="tiny" height="100%" version="1.2" width="100%" xmlns="http://www.w3.org/2000/svg" xmlns:ev="http://www.w3.org/2001/xml-events" xmlns:xlink="http://www.w3.org/1999/xlink"><defs />

	<rect fill="#ffffff" height="1" width="1" x="0" y="0" />
	<rect fill="#ffffff" height="1" width="1" x="1" y="0" />
	<rect fill="#ffffff" height="1" width="1" x="2" y="0" />
	<rect fill="#ffffff" height="1" width="1" x="3" y="0" />
	<rect fill="#ffffff" height="1" width="1" x="4" y="0" />
	<rect fill="#ffffff" height="1" width="1" x="5" y="0" />
	<rect fill="#ffffff" height="1" width="1" x="6" y="0" />
	<rect fill="#ffffff" height="1" width="1" x="7" y="0" />
	<rect fill="#ffffff" height="1" width="1" x="8" y="0" />
	<rect fill="#ffffff" height="1" width="1" x="9" y="0" />
	<rect fill="#ffffff" height="1" width="1" x="10" y="0" />
	<rect fill="#ffffff" height="1" width="1" x="11" y="0" />
	<rect fill="#ffffff" height="1" width="1" x="12" y="0" />
	<rect fill="#ffffff" height="1" width="1" x="13" y="0" />
	<rect fill="#ffffff" height="1" width="1" x="14" y="0" />
	<rect fill="#ffffff" height="1" width="1" x="15" y="0" />
	<rect fill="#ffffff" height="1" width="1" x="16" y="0" />
	<rect fill="#ffffff" height="1" width="1" x="17" y="0" />
	<rect fill="#ffffff" height="1" width="1" x="18" y="0" />
	<rect fill="#ffffff" height="1" width="1" x="19" y="0" />
	<rect fill="#ffffff" height="1" width="1" x="20" y="0" />
	<rect fill="#ffffff" height="1" width="1" x="21" y="0" />
	<rect fill="#ffffff" height="1" width="1" x="22" y="0" />
	<rect fill="#ffffff" height="1" width="1" x="23" y="0" />
	<rect fill="#ffffff" height="1" width="1" x="24" y="0" />

	<rect fill="#ffffff" height="1" width="1" x="0" y="1" />
	<rect fill="#ffffff" height="1" width="1" x="1" y="1" />
	<rect fill="#ffffff" height="1" width="1" x="2" y="1" />
	<rect fill="#ffffff" height="1" width="1" x="3" y="1" />
	<rect fill="#ffffff" height="1" width="1" x="4" y="1" />
	<rect fill="#ffffff" height="1" width="1" x="5" y="1" />
	<rect fill="#ffffff" height="1" width="1" x="6" y="1" />
	<rect fill="#fffffc" height="1" width="1" x="7" y="1" />
	<rect fill="#eed7b8" height="1" width="1" x="8" y="1" />
	<rect fill="#a18b77" height="1" width="1" x="9" y="1" />
	<rect fill="#695948" height="1" width="1" x="10" y="1" />
	<rect fill="#423c32" height="1" width="1" x="11" y="1" />
	<rect fill="#333332" height="1" width="1" x="12" y="1" />
	<rect fill="#3d444a" height="1" width="1" x="13" y="1" />
	<rect fill="#5d6d7c" height="1" width="1" x="14" y="1" />
	<rect fill="#90a7c1" height="1" width="1" x="15" y="1" />
	<rect fill="#def2fd" height="1" width="1" x="16" y="1" />
	<rect fill="#ffffff" height="1" width="1" x="17" y="1" />
	<rect fill="#ffffff" height="1" width="1" x="18" y="1" />
	<rect fill="#ffffff" height="1" width="1" x="19" y="1" />
	<rect fill="#ffffff" height="1" width="1" x="20" y="1" />
	<rect fill="#ffffff" height="1" width="1" x="21" y="1" />
	<rect fill="#ffffff" height="1" width="1" x="22" y="1" />
	<rect fill="#ffffff" height="1" width="1" x="23" y="1" />
	<rect fill="#ffffff" height="1" width="1" x="24" y="1" />
	<rect fill="#ffffff" height="1" width="1" x="0" y="2" />
	<rect fill="#ffffff" height="1" width="1" x="1" y="2" />
	<rect fill="#ffffff" height="1" width="1" x="2" y="2" />
	<rect fill="#ffffff" height="1" width="1" x="3" y="2" />
	<rect fill="#ffffff" height="1" width="1" x="4" y="2" />
	<rect fill="#fffff5" height="1" width="1" x="5" y="2" />
	<rect fill="#dfbc90" height="1" width="1" x="6" y="2" />
	<rect fill="#6b4726" height="1" width="1" x="7" y="2" />
	<rect fill="#1a130d" height="1" width="1" x="8" y="2" />
	<rect fill="#12120d" height="1" width="1" x="9" y="2" />
	<rect fill="#12120d" height="1" width="1" x="10" y="2" />
	<rect fill="#12120d" height="1" width="1" x="11" y="2" />
	<rect fill="#12120d" height="1" width="1" x="12" y="2" />
	<rect fill="#12120d" height="1" width="1" x="13" y="2" />
	<rect fill="#12120d" height="1" width="1" x="14" y="2" />
	<rect fill="#12120d" height="1" width="1" x="15" y="2" />
	<rect fill="#141f2e" height="1" width="1" x="16" y="2" />
	<rect fill="#50759c" height="1" width="1" x="17" y="2" />
	<rect fill="#c7e7fb" height="1" width="1" x="18" y="2" />
	<rect fill="#ffffff" height="1" width="1" x="19" y="2" />
	<rect fill="#ffffff" height="1" width="1" x="20" y="2" />
	<rect fill="#ffffff" height="1" width="1" x="21" y="2" />
	<rect fill="#ffffff" height="1" width="1" x="22" y="2" />
	<rect fill="#ffffff" height="1" width="1" x="23" y="2" />
	<rect fill="#ffffff" height="1" width="1" x="24" y="2" />

	<rect fill="#ffffff" height="1" width="1" x="0" y="3" />
	<rect fill="#ffffff" height="1" width="1" x="1" y="3" />
	<rect fill="#ffffff" height="1" width="1" x="2" y="3" />
	<rect fill="#ffffff" height="1" width="1" x="3" y="3" />
	<rect fill="#fff1ce" height="1" width="1" x="4" y="3" />
	<rect fill="#9d6432" height="1" width="1" x="5" y="3" />
	<rect fill="#1c120d" height="1" width="1" x="6" y="3" />
	<rect fill="#12120d" height="1" width="1" x="7" y="3" />
	<rect fill="#12120d" height="1" width="1" x="8" y="3" />
	<rect fill="#12120d" height="1" width="1" x="9" y="3" />
	<rect fill="#12120d" height="1" width="1" x="10" y="3" />
	<rect fill="#12120d" height="1" width="1" x="11" y="3" />
	<rect fill="#12120d" height="1" width="1" x="12" y="3" />
	<rect fill="#12120d" height="1" width="1" x="13" y="3" />
	<rect fill="#12120d" height="1" width="1" x="14" y="3" />
	<rect fill="#12120d" height="1" width="1" x="15" y="3" />
	<rect fill="#12120d" height="1" width="1" x="16" y="3" />
	<rect fill="#12120d" height="1" width="1" x="17" y="3" />
	<rect fill="#14213d" height="1" width="1" x="18" y="3" />
	<rect fill="#73add9" height="1" width="1" x="19" y="3" />
	<rect fill="#f7ffff" height="1" width="1" x="20" y="3" />
	<rect fill="#ffffff" height="1" width="1" x="21" y="3" />
	<rect fill="#ffffff" height="1" width="1" x="22" y="3" />
	<rect fill="#ffffff" height="1" width="1" x="23" y="3" />
	<rect fill="#ffffff" height="1" width="1" x="24" y="3" />

	<rect fill="#ffffff" height="1" width="1" x="0" y="4" />
	<rect fill="#ffffff" height="1" width="1" x="1" y="4" />
	<rect fill="#ffffff" height="1" width="1" x="2" y="4" />
	<rect fill="#fde8b7" height="1" width="1" x="3" y="4" />
	<rect fill="#793f1a" height="1" width="1" x="4" y="4" />
	<rect fill="#13120d" height="1" width="1" x="5" y="4" />
	<rect fill="#12120d" height="1" width="1" x="6" y="4" />
	<rect fill="#12120d" height="1" width="1" x="7" y="4" />
	<rect fill="#12120d" height="1" width="1" x="8" y="4" />
	<rect fill="#12120d" height="1" width="1" x="9" y="4" />
	<rect fill="#12120d" height="1" width="1" x="10" y="4" />
	<rect fill="#12120d" height="1" width="1" x="11" y="4" />
	<rect fill="#12120d" height="1" width="1" x="12" y="4" />
	<rect fill="#12120d" height="1" width="1" x="13" y="4" />
	<rect fill="#12120d" height="1" width="1" x="14" y="4" />
	<rect fill="#12120d" height="1" width="1" x="15" y="4" />
	<rect fill="#12120d" height="1" width="1" x="16" y="4" />
	<rect fill="#12120d" height="1" width="1" x="17" y="4" />
	<rect fill="#12120d" height="1" width="1" x="18" y="4" />
	<rect fill="#12141f" height="1" width="1" x="19" y="4" />
	<rect fill="#4d8bc7" height="1" width="1" x="20" y="4" />
	<rect fill="#f0ffff" height="1" width="1" x="21" y="4" />
	<rect fill="#ffffff" height="1" width="1" x="22" y="4" />
	<rect fill="#ffffff" height="1" width="1" x="23" y="4" />
	<rect fill="#ffffff" height="1" width="1" x="24" y="4" />
	<rect fill="#ffffff" height="1" width="1" x="0" y="5" />
	<rect fill="#ffffff" height="1" width="1" x="1" y="5" />
	<rect fill="#fffbd9" height="1" width="1" x="2" y="5" />
	<rect fill="#9b531f" height="1" width="1" x="3" y="5" />
	<rect fill="#13120d" height="1" width="1" x="4" y="5" />
	<rect fill="#12120d" height="1" width="1" x="5" y="5" />
	<rect fill="#12120d" height="1" width="1" x="6" y="5" />
	<rect fill="#12120d" height="1" width="1" x="7" y="5" />
	<rect fill="#12120d" height="1" width="1" x="8" y="5" />
	<rect fill="#12120d" height="1" width="1" x="9" y="5" />
	<rect fill="#12120d" height="1" width="1" x="10" y="5" />
	<rect fill="#12120d" height="1" width="1" x="11" y="5" />
	<rect fill="#12120d" height="1" width="1" x="12" y="5" />
	<rect fill="#12120d" height="1" width="1" x="13" y="5" />
	<rect fill="#12120d" height="1" width="1" x="14" y="5" />
	<rect fill="#12120d" height="1" width="1" x="15" y="5" />
	<rect fill="#12120d" height="1" width="1" x="16" y="5" />
	<rect fill="#12120d" height="1" width="1" x="17" y="5" />
	<rect fill="#12120d" height="1" width="1" x="18" y="5" />
	<rect fill="#12120d" height="1" width="1" x="19" y="5" />
	<rect fill="#121528" height="1" width="1" x="20" y="5" />
	<rect fill="#65aee6" height="1" width="1" x="21" y="5" />
	<rect fill="#fdffff" height="1" width="1" x="22" y="5" />
	<rect fill="#ffffff" height="1" width="1" x="23" y="5" />
	<rect fill="#ffffff" height="1" width="1" x="24" y="5" />
	<rect fill="#ffffff" height="1" width="1" x="0" y="6" />
	<rect fill="#fffffd" height="1" width="1" x="1" y="6" />
	<rect fill="#ebae5f" height="1" width="1" x="2" y="6" />
	<rect fill="#27130d" height="1" width="1" x="3" y="6" />
	<rect fill="#12120d" height="1" width="1" x="4" y="6" />
	<rect fill="#12120d" height="1" width="1" x="5" y="6" />
	<rect fill="#12120d" height="1" width="1" x="6" y="6" />
	<rect fill="#12120d" height="1" width="1" x="7" y="6" />
	<rect fill="#12120d" height="1" width="1" x="8" y="6" />
	<rect fill="#12120d" height="1" width="1" x="9" y="6" />
	<rect fill="#12120d" height="1" width="1" x="10" y="6" />
	<rect fill="#12120d" height="1" width="1" x="11" y="6" />
	<rect fill="#12120d" height="1" width="1" x="12" y="6" />
	<rect fill="#12120d" height="1" width="1" x="13" y="6" />
	<rect fill="#12120d" height="1" width="1" x="14" y="6" />
	<rect fill="#12120d" height="1" width="1" x="15" y="6" />
	<rect fill="#12120d" height="1" width="1" x="16" y="6" />
	<rect fill="#12120d" height="1" width="1" x="17" y="6" />
	<rect fill="#12120d" height="1" width="1" x="18" y="6" />
	<rect fill="#12120d" height="1" width="1" x="19" y="6" />
	<rect fill="#12120d" height="1" width="1" x="20" y="6" />
	<rect fill="#153171" height="1" width="1" x="21" y="6" />
	<rect fill="#c0f4ff" height="1" width="1" x="22" y="6" />
	<rect fill="#ffffff" height="1" width="1" x="23" y="6" />
	<rect fill="#ffffff" height="1" width="1" x="24" y="6" />
	<rect fill="#ffffff" height="1" width="1" x="0" y="7" />
	<rect fill="#fffde8" height="1" width="1" x="1" y="7" />
	<rect fill="#a15618" height="1" width="1" x="2" y="7" />
	<rect fill="#12120d" height="1" width="1" x="3" y="7" />
	<rect fill="#12120d" height="1" width="1" x="4" y="7" />
	<rect fill="#12120d" height="1" width="1" x="5" y="7" />
	<rect fill="#12120d" height="1" width="1" x="6" y="7" />
	<rect fill="#12120d" height="1" width="1" x="7" y="7" />
	<rect fill="#12120d" height="1" width="1" x="8" y="7" />
	<rect fill="#12120d" height="1" width="1" x="9" y="7" />
	<rect fill="#12120d" height="1" width="1" x="10" y="7" />
	<rect fill="#12120d" height="1" width="1" x="11" y="7" />
	<rect fill="#12120d" height="1" width="1" x="12" y="7" />
	<rect fill="#12120d" height="1" width="1" x="13" y="7" />
	<rect fill="#12120d" height="1" width="1" x="14" y="7" />
	<rect fill="#12120d" height="1" width="1" x="15" y="7" />
	<rect fill="#12120d" height="1" width="1" x="16" y="7" />
	<rect fill="#12120d" height="1" width="1" x="17" y="7" />
	<rect fill="#12120d" height="1" width="1" x="18" y="7" />
	<rect fill="#12120d" height="1" width="1" x="19" y="7" />
	<rect fill="#12120d" height="1" width="1" x="20" y="7" />
	<rect fill="#121320" height="1" width="1" x="21" y="7" />
	<rect fill="#66b2f3" height="1" width="1" x="22" y="7" />
	<rect fill="#ffffff" height="1" width="1" x="23" y="7" />
	<rect fill="#ffffff" height="1" width="1" x="24" y="7" />
	<rect fill="#ffffff" height="1" width="1" x="0" y="8" />
	<rect fill="#fff8b9" height="1" width="1" x="1" y="8" />
	<rect fill="#6e2b0f" height="1" width="1" x="2" y="8" />
	<rect fill="#12120d" height="1" width="1" x="3" y="8" />
	<rect fill="#12120d" height="1" width="1" x="4" y="8" />
	<rect fill="#12120d" height="1" width="1" x="5" y="8" />
	<rect fill="#12120d" height="1" width="1" x="6" y="8" />
	<rect fill="#12120d" height="1" width="1" x="7" y="8" />
	<rect fill="#12120d" height="1" width="1" x="8" y="8" />
	<rect fill="#12120d" height="1" width="1" x="9" y="8" />
	<rect fill="#12120d" height="1" width="1" x="10" y="8" />
	<rect fill="#12120d" height="1" width="1" x="11" y="8" />
	<rect fill="#12120d" height="1" width="1" x="12" y="8" />
	<rect fill="#12120d" height="1" width="1" x="13" y="8" />
	<rect fill="#12120d" height="1" width="1" x="14" y="8" />
	<rect fill="#12120d" height="1" width="1" x="15" y="8" />
	<rect fill="#12120d" height="1" width="1" x="16" y="8" />
	<rect fill="#12120d" height="1" width="1" x="17" y="8" />
	<rect fill="#12120d" height="1" width="1" x="18" y="8" />
	<rect fill="#12120d" height="1" width="1" x="19" y="8" />
	<rect fill="#12120d" height="1" width="1" x="20" y="8" />
	<rect fill="#121210" height="1" width="1" x="21" y="8" />
	<rect fill="#387fc9" height="1" width="1" x="22" y="8" />
	<rect fill="#ffffff" height="1" width="1" x="23" y="8" />
	<rect fill="#ffffff" height="1" width="1" x="24" y="8" />
	<rect fill="#ffffff" height="1" width="1" x="0" y="9" />
	<rect fill="#fff5a9" height="1" width="1" x="1" y="9" />
	<rect fill="#5e1c0d" height="1" width="1" x="2" y="9" />
	<rect fill="#12120d" height="1" width="1" x="3" y="9" />
	<rect fill="#12120d" height="1" width="1" x="4" y="9" />
	<rect fill="#12120d" height="1" width="1" x="5" y="9" />
	<rect fill="#12120d" height="1" width="1" x="6" y="9" />
	<rect fill="#12120d" height="1" width="1" x="7" y="9" />
	<rect fill="#12120d" height="1" width="1" x="8" y="9" />
	<rect fill="#12120d" height="1" width="1" x="9" y="9" />
	<rect fill="#12120d" height="1" width="1" x="10" y="9" />
	<rect fill="#12120d" height="1" width="1" x="11" y="9" />
	<rect fill="#12120d" height="1" width="1" x="12" y="9" />
	<rect fill="#12120d" height="1" width="1" x="13" y="9" />
	<rect fill="#12120d" height="1" width="1" x="14" y="9" />
	<rect fill="#12120d" height="1" width="1" x="15" y="9" />
	<rect fill="#12120d" height="1" width="1" x="16" y="9" />
	<rect fill="#12120d" height="1" width="1" x="17" y="9" />
	<rect fill="#12120d" height="1" width="1" x="18" y="9" />
	<rect fill="#12120d" height="1" width="1" x="19" y="9" />
	<rect fill="#12120d" height="1" width="1" x="20" y="9" />
	<rect fill="#12120e" height="1" width="1" x="21" y="9" />
	<rect fill="#296eb8" height="1" width="1" x="22" y="9" />
	<rect fill="#ffffff" height="1" width="1" x="23" y="9" />
	<rect fill="#ffffff" height="1" width="1" x="24" y="9" />
	<rect fill="#ffffff" height="1" width="1" x="0" y="10" />
	<rect fill="#fff5af" height="1" width="1" x="1" y="10" />
	<rect fill="#63200d" height="1" width="1" x="2" y="10" />
	<rect fill="#12120d" height="1" width="1" x="3" y="10" />
	<rect fill="#12120d" height="1" width="1" x="4" y="10" />
	<rect fill="#12120d" height="1" width="1" x="5" y="10" />
	<rect fill="#12120d" height="1" width="1" x="6" y="10" />
	<rect fill="#12120d" height="1" width="1" x="7" y="10" />
	<rect fill="#12120d" height="1" width="1" x="8" y="10" />
	<rect fill="#12120d" height="1" width="1" x="9" y="10" />
	<rect fill="#12120d" height="1" width="1" x="10" y="10" />
	<rect fill="#12120d" height="1" width="1" x="11" y="10" />
	<rect fill="#12120d" height="1" width="1" x="12" y="10" />
	<rect fill="#12120d" height="1" width="1" x="13" y="10" />
	<rect fill="#12120d" height="1" width="1" x="14" y="10" />
	<rect fill="#12120d" height="1" width="1" x="15" y="10" />
	<rect fill="#12120d" height="1" width="1" x="16" y="10" />
	<rect fill="#12120d" height="1" width="1" x="17" y="10" />
	<rect fill="#12120d" height="1" width="1" x="18" y="10" />
	<rect fill="#12120d" height="1" width="1" x="19" y="10" />
	<rect fill="#12120d" height="1" width="1" x="20" y="10" />
	<rect fill="#12120f" height="1" width="1" x="21" y="10" />
	<rect fill="#2f75c0" height="1" width="1" x="22" y="10" />
	<rect fill="#ffffff" height="1" width="1" x="23" y="10" />
	<rect fill="#ffffff" height="1" width="1" x="24" y="10" />
	<rect fill="#ffffff" height="1" width="1" x="0" y="11" />
	<rect fill="#fff8be" height="1" width="1" x="1" y="11" />
	<rect fill="#732d0f" height="1" width="1" x="2" y="11" />
	<rect fill="#12120d" height="1" width="1" x="3" y="11" />
	<rect fill="#12120d" height="1" width="1" x="4" y="11" />
	<rect fill="#12120d" height="1" width="1" x="5" y="11" />
	<rect fill="#12120d" height="1" width="1" x="6" y="11" />
	<rect fill="#12120d" height="1" width="1" x="7" y="11" />
	<rect fill="#12120d" height="1" width="1" x="8" y="11" />
	<rect fill="#12120d" height="1" width="1" x="9" y="11" />
	<rect fill="#12120d" height="1" width="1" x="10" y="11" />
	<rect fill="#12120d" height="1" width="1" x="11" y="11" />
	<rect fill="#12120d" height="1" width="1" x="12" y="11" />
	<rect fill="#12120d" height="1" width="1" x="13" y="11" />
	<rect fill="#12120d" height="1" width="1" x="14" y="11" />
	<rect fill="#12120d" height="1" width="1" x="15" y="11" />
	<rect fill="#12120d" height="1" width="1" x="16" y="11" />
	<rect fill="#12120d" height="1" width="1" x="17" y="11" />
	<rect fill="#12120d" height="1" width="1" x="18" y="11" />
	<rect fill="#12120d" height="1" width="1" x="19" y="11" />
	<rect fill="#12120d" height="1" width="1" x="20" y="11" />
	<rect fill="#121211" height="1" width="1" x="21" y="11" />
	<rect fill="#3f87d2" height="1" width="1" x="22" y="11" />
	<rect fill="#ffffff" height="1" width="1" x="23" y="11" />
	<rect fill="#ffffff" height="1" width="1" x="24" y="11" />
	<rect fill="#ffffff" height="1" width="1" x="0" y="12" />
	<rect fill="#fffde7" height="1" width="1" x="1" y="12" />
	<rect fill="#9d5315" height="1" width="1" x="2" y="12" />
	<rect fill="#12120d" height="1" width="1" x="3" y="12" />
	<rect fill="#12120d" height="1" width="1" x="4" y="12" />
	<rect fill="#121316" height="1" width="1" x="5" y="12" />
	<rect fill="#2b4459" height="1" width="1" x="6" y="12" />
	<rect fill="#6f7c83" height="1" width="1" x="7" y="12" />
	<rect fill="#8d9390" height="1" width="1" x="8" y="12" />
	<rect fill="#8d846f" height="1" width="1" x="9" y="12" />
	<rect fill="#59391c" height="1" width="1" x="10" y="12" />
	<rect fill="#13120d" height="1" width="1" x="11" y="12" />
	<rect fill="#12120d" height="1" width="1" x="12" y="12" />
	<rect fill="#121521" height="1" width="1" x="13" y="12" />
	<rect fill="#416176" height="1" width="1" x="14" y="12" />
	<rect fill="#878f90" height="1" width="1" x="15" y="12" />
	<rect fill="#918b80" height="1" width="1" x="16" y="12" />
	<rect fill="#7a6c54" height="1" width="1" x="17" y="12" />
	<rect fill="#3d2613" height="1" width="1" x="18" y="12" />
	<rect fill="#12120d" height="1" width="1" x="19" y="12" />
	<rect fill="#12120d" height="1" width="1" x="20" y="12" />
	<rect fill="#12131f" height="1" width="1" x="21" y="12" />
	<rect fill="#67b3f4" height="1" width="1" x="22" y="12" />
	<rect fill="#ffffff" height="1" width="1" x="23" y="12" />
	<rect fill="#ffffff" height="1" width="1" x="24" y="12" />
	<rect fill="#ffffff" height="1" width="1" x="0" y="13" />
	<rect fill="#fffffd" height="1" width="1" x="1" y="13" />
	<rect fill="#e39b4d" height="1" width="1" x="2" y="13" />
	<rect fill="#1c120d" height="1" width="1" x="3" y="13" />
	<rect fill="#121219" height="1" width="1" x="4" y="13" />
	<rect fill="#4789cc" height="1" width="1" x="5" y="13" />
	<rect fill="#f3ffff" height="1" width="1" x="6" y="13" />
	<rect fill="#ffffff" height="1" width="1" x="7" y="13" />
	<rect fill="#ffffff" height="1" width="1" x="8" y="13" />
	<rect fill="#ffffff" height="1" width="1" x="9" y="13" />
	<rect fill="#fdeaa5" height="1" width="1" x="10" y="13" />
	<rect fill="#5d200e" height="1" width="1" x="11" y="13" />
	<rect fill="#12120f" height="1" width="1" x="12" y="13" />
	<rect fill="#2f71bb" height="1" width="1" x="13" y="13" />
	<rect fill="#f3ffff" height="1" width="1" x="14" y="13" />
	<rect fill="#ffffff" height="1" width="1" x="15" y="13" />
	<rect fill="#ffffff" height="1" width="1" x="16" y="13" />
	<rect fill="#ffffff" height="1" width="1" x="17" y="13" />
	<rect fill="#fdedbd" height="1" width="1" x="18" y="13" />
	<rect fill="#763912" height="1" width="1" x="19" y="13" />
	<rect fill="#12120d" height="1" width="1" x="20" y="13" />
	<rect fill="#132663" height="1" width="1" x="21" y="13" />
	<rect fill="#b1f0ff" height="1" width="1" x="22" y="13" />
	<rect fill="#ffffff" height="1" width="1" x="23" y="13" />
	<rect fill="#ffffff" height="1" width="1" x="24" y="13" />
	<rect fill="#ffffff" height="1" width="1" x="0" y="14" />
	<rect fill="#ffffff" height="1" width="1" x="1" y="14" />
	<rect fill="#fde8a2" height="1" width="1" x="2" y="14" />
	<rect fill="#5a200d" height="1" width="1" x="3" y="14" />
	<rect fill="#121e57" height="1" width="1" x="4" y="14" />
	<rect fill="#a6eeff" height="1" width="1" x="5" y="14" />
	<rect fill="#ffffff" height="1" width="1" x="6" y="14" />
	<rect fill="#ffffff" height="1" width="1" x="7" y="14" />
	<rect fill="#ffffff" height="1" width="1" x="8" y="14" />
	<rect fill="#ffffff" height="1" width="1" x="9" y="14" />
	<rect fill="#fff9c3" height="1" width="1" x="10" y="14" />
	<rect fill="#783210" height="1" width="1" x="11" y="14" />
	<rect fill="#121211" height="1" width="1" x="12" y="14" />
	<rect fill="#468ed9" height="1" width="1" x="13" y="14" />
	<rect fill="#fcffff" height="1" width="1" x="14" y="14" />
	<rect fill="#ffffff" height="1" width="1" x="15" y="14" />
	<rect fill="#ffffff" height="1" width="1" x="16" y="14" />
	<rect fill="#ffffff" height="1" width="1" x="17" y="14" />
	<rect fill="#fffffc" height="1" width="1" x="18" y="14" />
	<rect fill="#dd9144" height="1" width="1" x="19" y="14" />
	<rect fill="#16120f" height="1" width="1" x="20" y="14" />
	<rect fill="#2b6eb8" height="1" width="1" x="21" y="14" />
	<rect fill="#f4ffff" height="1" width="1" x="22" y="14" />
	<rect fill="#ffffff" height="1" width="1" x="23" y="14" />
	<rect fill="#ffffff" height="1" width="1" x="24" y="14" />
	<rect fill="#ffffff" height="1" width="1" x="0" y="15" />
	<rect fill="#ffffff" height="1" width="1" x="1" y="15" />
	<rect fill="#ffffed" height="1" width="1" x="2" y="15" />
	<rect fill="#ac601e" height="1" width="1" x="3" y="15" />
	<rect fill="#152d70" height="1" width="1" x="4" y="15" />
	<rect fill="#c0f8ff" height="1" width="1" x="5" y="15" />
	<rect fill="#ffffff" height="1" width="1" x="6" y="15" />
	<rect fill="#ffffff" height="1" width="1" x="7" y="15" />
	<rect fill="#ffffff" height="1" width="1" x="8" y="15" />
	<rect fill="#ffffff" height="1" width="1" x="9" y="15" />
	<rect fill="#ffeba1" height="1" width="1" x="10" y="15" />
	<rect fill="#571c0d" height="1" width="1" x="11" y="15" />
	<rect fill="#12120f" height="1" width="1" x="12" y="15" />
	<rect fill="#2b6eb8" height="1" width="1" x="13" y="15" />
	<rect fill="#f5ffff" height="1" width="1" x="14" y="15" />
	<rect fill="#ffffff" height="1" width="1" x="15" y="15" />
	<rect fill="#ffffff" height="1" width="1" x="16" y="15" />
	<rect fill="#ffffff" height="1" width="1" x="17" y="15" />
	<rect fill="#ffffff" height="1" width="1" x="18" y="15" />
	<rect fill="#f5ab5a" height="1" width="1" x="19" y="15" />
	<rect fill="#1c152c" height="1" width="1" x="20" y="15" />
	<rect fill="#75c1f7" height="1" width="1" x="21" y="15" />
	<rect fill="#ffffff" height="1" width="1" x="22" y="15" />
	<rect fill="#ffffff" height="1" width="1" x="23" y="15" />
	<rect fill="#ffffff" height="1" width="1" x="24" y="15" />
	<rect fill="#ffffff" height="1" width="1" x="0" y="16" />
	<rect fill="#ffffff" height="1" width="1" x="1" y="16" />
	<rect fill="#fffffd" height="1" width="1" x="2" y="16" />
	<rect fill="#eaa152" height="1" width="1" x="3" y="16" />
	<rect fill="#1b1d55" height="1" width="1" x="4" y="16" />
	<rect fill="#a3ebff" height="1" width="1" x="5" y="16" />
	<rect fill="#ffffff" height="1" width="1" x="6" y="16" />
	<rect fill="#ffffff" height="1" width="1" x="7" y="16" />
	<rect fill="#ffffff" height="1" width="1" x="8" y="16" />
	<rect fill="#fffdea" height="1" width="1" x="9" y="16" />
	<rect fill="#bd7737" height="1" width="1" x="10" y="16" />
	<rect fill="#19120d" height="1" width="1" x="11" y="16" />
	<rect fill="#12120d" height="1" width="1" x="12" y="16" />
	<rect fill="#132048" height="1" width="1" x="13" y="16" />
	<rect fill="#8ecef3" height="1" width="1" x="14" y="16" />
	<rect fill="#ffffff" height="1" width="1" x="15" y="16" />
	<rect fill="#ffffff" height="1" width="1" x="16" y="16" />
	<rect fill="#ffffff" height="1" width="1" x="17" y="16" />
	<rect fill="#fffffc" height="1" width="1" x="18" y="16" />
	<rect fill="#d98e41" height="1" width="1" x="19" y="16" />
	<rect fill="#172667" height="1" width="1" x="20" y="16" />
	<rect fill="#b5f5ff" height="1" width="1" x="21" y="16" />
	<rect fill="#ffffff" height="1" width="1" x="22" y="16" />
	<rect fill="#ffffff" height="1" width="1" x="23" y="16" />
	<rect fill="#ffffff" height="1" width="1" x="24" y="16" />
	<rect fill="#ffffff" height="1" width="1" x="0" y="17" />
	<rect fill="#ffffff" height="1" width="1" x="1" y="17" />
	<rect fill="#ffffff" height="1" width="1" x="2" y="17" />
	<rect fill="#f7ba6a" height="1" width="1" x="3" y="17" />
	<rect fill="#291412" height="1" width="1" x="4" y="17" />
	<rect fill="#3568a3" height="1" width="1" x="5" y="17" />
	<rect fill="#d2eefb" height="1" width="1" x="6" y="17" />
	<rect fill="#fff9ee" height="1" width="1" x="7" y="17" />
	<rect fill="#dbc19e" height="1" width="1" x="8" y="17" />
	<rect fill="#7b532c" height="1" width="1" x="9" y="17" />
	<rect fill="#1a120e" height="1" width="1" x="10" y="17" />
	<rect fill="#234368" height="1" width="1" x="11" y="17" />
	<rect fill="#827f5e" height="1" width="1" x="12" y="17" />
	<rect fill="#3b1f0e" height="1" width="1" x="13" y="17" />
	<rect fill="#132036" height="1" width="1" x="14" y="17" />
	<rect fill="#6087a7" height="1" width="1" x="15" y="17" />
	<rect fill="#c9e2f2" height="1" width="1" x="16" y="17" />
	<rect fill="#fbfff8" height="1" width="1" x="17" y="17" />
	<rect fill="#e8c893" height="1" width="1" x="18" y="17" />
	<rect fill="#592b0f" height="1" width="1" x="19" y="17" />
	<rect fill="#163b80" height="1" width="1" x="20" y="17" />
	<rect fill="#cefbff" height="1" width="1" x="21" y="17" />
	<rect fill="#ffffff" height="1" width="1" x="22" y="17" />
	<rect fill="#ffffff" height="1" width="1" x="23" y="17" />
	<rect fill="#ffffff" height="1" width="1" x="24" y="17" />
	<rect fill="#ffffff" height="1" width="1" x="0" y="18" />
	<rect fill="#ffffff" height="1" width="1" x="1" y="18" />
	<rect fill="#ffffff" height="1" width="1" x="2" y="18" />
	<rect fill="#efa456" height="1" width="1" x="3" y="18" />
	<rect fill="#1b120d" height="1" width="1" x="4" y="18" />
	<rect fill="#12120d" height="1" width="1" x="5" y="18" />
	<rect fill="#121311" height="1" width="1" x="6" y="18" />
	<rect fill="#16160d" height="1" width="1" x="7" y="18" />
	<rect fill="#12120d" height="1" width="1" x="8" y="18" />
	<rect fill="#12120d" height="1" width="1" x="9" y="18" />
	<rect fill="#142c68" height="1" width="1" x="10" y="18" />
	<rect fill="#b4edfd" height="1" width="1" x="11" y="18" />
	<rect fill="#fffffd" height="1" width="1" x="12" y="18" />
	<rect fill="#e2a154" height="1" width="1" x="13" y="18" />
	<rect fill="#21130d" height="1" width="1" x="14" y="18" />
	<rect fill="#12120d" height="1" width="1" x="15" y="18" />
	<rect fill="#12120e" height="1" width="1" x="16" y="18" />
	<rect fill="#161611" height="1" width="1" x="17" y="18" />
	<rect fill="#12120d" height="1" width="1" x="18" y="18" />
	<rect fill="#12120d" height="1" width="1" x="19" y="18" />
	<rect fill="#142b6c" height="1" width="1" x="20" y="18" />
	<rect fill="#bcf8ff" height="1" width="1" x="21" y="18" />
	<rect fill="#ffffff" height="1" width="1" x="22" y="18" />
	<rect fill="#ffffff" height="1" width="1" x="23" y="18" />
	<rect fill="#ffffff" height="1" width="1" x="24" y="18" />
	<rect fill="#ffffff" height="1" width="1" x="0" y="19" />
	<rect fill="#ffffff" height="1" width="1" x="1" y="19" />
	<rect fill="#fffff9" height="1" width="1" x="2" y="19" />
	<rect fill="#cb8034" height="1" width="1" x="3" y="19" />
	<rect fill="#15120d" height="1" width="1" x="4" y="19" />
	<rect fill="#12120d" height="1" width="1" x="5" y="19" />
	<rect fill="#12120d" height="1" width="1" x="6" y="19" />
	<rect fill="#12120d" height="1" width="1" x="7" y="19" />
	<rect fill="#12120d" height="1" width="1" x="8" y="19" />
	<rect fill="#121211" height="1" width="1" x="9" y="19" />
	<rect fill="#3d86d0" height="1" width="1" x="10" y="19" />
	<rect fill="#fbffff" height="1" width="1" x="11" y="19" />
	<rect fill="#ffffff" height="1" width="1" x="12" y="19" />
	<rect fill="#fff5b9" height="1" width="1" x="13" y="19" />
	<rect fill="#6e2c0f" height="1" width="1" x="14" y="19" />
	<rect fill="#12120d" height="1" width="1" x="15" y="19" />
	<rect fill="#12120d" height="1" width="1" x="16" y="19" />
	<rect fill="#12120d" height="1" width="1" x="17" y="19" />
	<rect fill="#12120d" height="1" width="1" x="18" y="19" />
	<rect fill="#12120d" height="1" width="1" x="19" y="19" />
	<rect fill="#121748" height="1" width="1" x="20" y="19" />
	<rect fill="#96e2fd" height="1" width="1" x="21" y="19" />
	<rect fill="#ffffff" height="1" width="1" x="22" y="19" />
	<rect fill="#ffffff" height="1" width="1" x="23" y="19" />
	<rect fill="#ffffff" height="1" width="1" x="24" y="19" />
	<rect fill="#ffffff" height="1" width="1" x="0" y="20" />
	<rect fill="#ffffff" height="1" width="1" x="1" y="20" />
	<rect fill="#fffffb" height="1" width="1" x="2" y="20" />
	<rect fill="#cd8236" height="1" width="1" x="3" y="20" />
	<rect fill="#16120d" height="1" width="1" x="4" y="20" />
	<rect fill="#12120d" height="1" width="1" x="5" y="20" />
	<rect fill="#12120d" height="1" width="1" x="6" y="20" />
	<rect fill="#12120d" height="1" width="1" x="7" y="20" />
	<rect fill="#12120d" height="1" width="1" x="8" y="20" />
	<rect fill="#121320" height="1" width="1" x="9" y="20" />
	<rect fill="#6ab6f7" height="1" width="1" x="10" y="20" />
	<rect fill="#ffffff" height="1" width="1" x="11" y="20" />
	<rect fill="#ffffff" height="1" width="1" x="12" y="20" />
	<rect fill="#fffff0" height="1" width="1" x="13" y="20" />
	<rect fill="#a65a15" height="1" width="1" x="14" y="20" />
	<rect fill="#12120d" height="1" width="1" x="15" y="20" />
	<rect fill="#12120d" height="1" width="1" x="16" y="20" />
	<rect fill="#12120d" height="1" width="1" x="17" y="20" />
	<rect fill="#12120d" height="1" width="1" x="18" y="20" />
	<rect fill="#12120d" height="1" width="1" x="19" y="20" />
	<rect fill="#121749" height="1" width="1" x="20" y="20" />
	<rect fill="#97e3fd" height="1" width="1" x="21" y="20" />
	<rect fill="#ffffff" height="1" width="1" x="22" y="20" />
	<rect fill="#ffffff" height="1" width="1" x="23" y="20" />
	<rect fill="#ffffff" height="1" width="1" x="24" y="20" />
	<rect fill="#ffffff" height="1" width="1" x="0" y="21" />
	<rect fill="#ffffff" height="1" width="1" x="1" y="21" />
	<rect fill="#ffffff" height="1" width="1" x="2" y="21" />
	<rect fill="#fcdda4" height="1" width="1" x="3" y="21" />
	<rect fill="#643517" height="1" width="1" x="4" y="21" />
	<rect fill="#13120d" height="1" width="1" x="5" y="21" />
	<rect fill="#12120d" height="1" width="1" x="6" y="21" />
	<rect fill="#12120d" height="1" width="1" x="7" y="21" />
	<rect fill="#12120d" height="1" width="1" x="8" y="21" />
	<rect fill="#121212" height="1" width="1" x="9" y="21" />
	<rect fill="#3a74b3" height="1" width="1" x="10" y="21" />
	<rect fill="#d8e2dc" height="1" width="1" x="11" y="21" />
	<rect fill="#d7d7df" height="1" width="1" x="12" y="21" />
	<rect fill="#e2d2a1" height="1" width="1" x="13" y="21" />
	<rect fill="#622d0f" height="1" width="1" x="14" y="21" />
	<rect fill="#12120d" height="1" width="1" x="15" y="21" />
	<rect fill="#12120d" height="1" width="1" x="16" y="21" />
	<rect fill="#12120d" height="1" width="1" x="17" y="21" />
	<rect fill="#12120d" height="1" width="1" x="18" y="21" />
	<rect fill="#12141c" height="1" width="1" x="19" y="21" />
	<rect fill="#4078b5" height="1" width="1" x="20" y="21" />
	<rect fill="#e8fdff" height="1" width="1" x="21" y="21" />
	<rect fill="#ffffff" height="1" width="1" x="22" y="21" />
	<rect fill="#ffffff" height="1" width="1" x="23" y="21" />
	<rect fill="#ffffff" height="1" width="1" x="24" y="21" />
	<rect fill="#ffffff" height="1" width="1" x="0" y="22" />
	<rect fill="#ffffff" height="1" width="1" x="1" y="22" />
	<rect fill="#ffffff" height="1" width="1" x="2" y="22" />
	<rect fill="#ffffff" height="1" width="1" x="3" y="22" />
	<rect fill="#fffbee" height="1" width="1" x="4" y="22" />
	<rect fill="#e0d3cb" height="1" width="1" x="5" y="22" />
	<rect fill="#cac8be" height="1" width="1" x="6" y="22" />
	<rect fill="#a8824b" height="1" width="1" x="7" y="22" />
	<rect fill="#29140d" height="1" width="1" x="8" y="22" />
	<rect fill="#12120d" height="1" width="1" x="9" y="22" />
	<rect fill="#12120d" height="1" width="1" x="10" y="22" />
	<rect fill="#12120d" height="1" width="1" x="11" y="22" />
	<rect fill="#12120d" height="1" width="1" x="12" y="22" />
	<rect fill="#12120d" height="1" width="1" x="13" y="22" />
	<rect fill="#12120d" height="1" width="1" x="14" y="22" />
	<rect fill="#12120d" height="1" width="1" x="15" y="22" />
	<rect fill="#162f57" height="1" width="1" x="16" y="22" />
	<rect fill="#8cafc1" height="1" width="1" x="17" y="22" />
	<rect fill="#c9cacc" height="1" width="1" x="18" y="22" />
	<rect fill="#d6e4f3" height="1" width="1" x="19" y="22" />
	<rect fill="#fdffff" height="1" width="1" x="20" y="22" />
	<rect fill="#ffffff" height="1" width="1" x="21" y="22" />
	<rect fill="#ffffff" height="1" width="1" x="22" y="22" />
	<rect fill="#ffffff" height="1" width="1" x="23" y="22" />
	<rect fill="#ffffff" height="1" width="1" x="24" y="22" />
	<rect fill="#ffffff" height="1" width="1" x="0" y="23" />
	<rect fill="#ffffff" height="1" width="1" x="1" y="23" />
	<rect fill="#ffffff" height="1" width="1" x="2" y="23" />
	<rect fill="#ffffff" height="1" width="1" x="3" y="23" />
	<rect fill="#ffffff" height="1" width="1" x="4" y="23" />
	<rect fill="#ffffff" height="1" width="1" x="5" y="23" />
	<rect fill="#ffffff" height="1" width="1" x="6" y="23" />
	<rect fill="#fffde3" height="1" width="1" x="7" y="23" />
	<rect fill="#984e13" height="1" width="1" x="8" y="23" />
	<rect fill="#12120d" height="1" width="1" x="9" y="23" />
	<rect fill="#12120d" height="1" width="1" x="10" y="23" />
	<rect fill="#12120d" height="1" width="1" x="11" y="23" />
	<rect fill="#12120d" height="1" width="1" x="12" y="23" />
	<rect fill="#12120d" height="1" width="1" x="13" y="23" />
	<rect fill="#12120d" height="1" width="1" x="14" y="23" />
	<rect fill="#12131d" height="1" width="1" x="15" y="23" />
	<rect fill="#60acee" height="1" width="1" x="16" y="23" />
	<rect fill="#ffffff" height="1" width="1" x="17" y="23" />
	<rect fill="#ffffff" height="1" width="1" x="18" y="23" />
	<rect fill="#ffffff" height="1" width="1" x="19" y="23" />
	<rect fill="#ffffff" height="1" width="1" x="20" y="23" />
	<rect fill="#ffffff" height="1" width="1" x="21" y="23" />
	<rect fill="#ffffff" height="1" width="1" x="22" y="23" />
	<rect fill="#ffffff" height="1" width="1" x="23" y="23" />
	<rect fill="#ffffff" height="1" width="1" x="24" y="23" />
	<rect fill="#ffffff" height="1" width="1" x="0" y="24" />
	<rect fill="#ffffff" height="1" width="1" x="1" y="24" />
	<rect fill="#ffffff" height="1" width="1" x="2" y="24" />
	<rect fill="#ffffff" height="1" width="1" x="3" y="24" />
	<rect fill="#ffffff" height="1" width="1" x="4" y="24" />
	<rect fill="#ffffff" height="1" width="1" x="5" y="24" />
	<rect fill="#ffffff" height="1" width="1" x="6" y="24" />
	<rect fill="#fffff5" height="1" width="1" x="7" y="24" />
	<rect fill="#b0631c" height="1" width="1" x="8" y="24" />
	<rect fill="#12120d" height="1" width="1" x="9" y="24" />
	<rect fill="#12120d" height="1" width="1" x="10" y="24" />
	<rect fill="#12120d" height="1" width="1" x="11" y="24" />
	<rect fill="#12120d" height="1" width="1" x="12" y="24" />
	<rect fill="#12120d" height="1" width="1" x="13" y="24" />
	<rect fill="#12120d" height="1" width="1" x="14" y="24" />
	<rect fill="#12142a" height="1" width="1" x="15" y="24" />
	<rect fill="#73c0f8" height="1" width="1" x="16" y="24" />
	<rect fill="#ffffff" height="1" width="1" x="17" y="24" />
	<rect fill="#ffffff" height="1" width="1" x="18" y="24" />
	<rect fill="#ffffff" height="1" width="1" x="19" y="24" />
	<rect fill="#ffffff" height="1" width="1" x="20" y="24" />
	<rect fill="#ffffff" height="1" width="1" x="21" y="24" />
	<rect fill="#ffffff" height="1" width="1" x="22" y="24" />
	<rect fill="#ffffff" height="1" width="1" x="23" y="24" />
	<rect fill="#ffffff" height="1" width="1" x="24" y="24" />
	<rect fill="#ffffff" height="1" width="1" x="0" y="25" />
	<rect fill="#ffffff" height="1" width="1" x="1" y="25" />
	<rect fill="#ffffff" height="1" width="1" x="2" y="25" />
	<rect fill="#ffffff" height="1" width="1" x="3" y="25" />
	<rect fill="#ffffff" height="1" width="1" x="4" y="25" />
	<rect fill="#ffffff" height="1" width="1" x="5" y="25" />
	<rect fill="#ffffff" height="1" width="1" x="6" y="25" />
	<rect fill="#ffffff" height="1" width="1" x="7" y="25" />
	<rect fill="#f1d1a4" height="1" width="1" x="8" y="25" />
	<rect fill="#7e624a" height="1" width="1" x="9" y="25" />
	<rect fill="#3c2e1f" height="1" width="1" x="10" y="25" />
	<rect fill="#1b150d" height="1" width="1" x="11" y="25" />
	<rect fill="#12120d" height="1" width="1" x="12" y="25" />
	<rect fill="#161d20" height="1" width="1" x="13" y="25" />
	<rect fill="#303e4c" height="1" width="1" x="14" y="25" />
	<rect fill="#6687b0" height="1" width="1" x="15" y="25" />
	<rect fill="#daf7ff" height="1" width="1" x="16" y="25" />
	<rect fill="#ffffff" height="1" width="1" x="17" y="25" />
	<rect fill="#ffffff" height="1" width="1" x="18" y="25" />
	<rect fill="#ffffff" height="1" width="1" x="19" y="25" />
	<rect fill="#ffffff" height="1" width="1" x="20" y="25" />
	<rect fill="#ffffff" height="1" width="1" x="21" y="25" />
	<rect fill="#ffffff" height="1" width="1" x="22" y="25" />
	<rect fill="#ffffff" height="1" width="1" x="23" y="25" />
	<rect fill="#ffffff" height="1" width="1" x="24" y="25" />
	<rect fill="#ffffff" height="1" width="1" x="0" y="26" />
	<rect fill="#ffffff" height="1" width="1" x="1" y="26" />
	<rect fill="#ffffff" height="1" width="1" x="2" y="26" />
	<rect fill="#ffffff" height="1" width="1" x="3" y="26" />
	<rect fill="#ffffff" height="1" width="1" x="4" y="26" />
	<rect fill="#ffffff" height="1" width="1" x="5" y="26" />
	<rect fill="#ffffff" height="1" width="1" x="6" y="26" />
	<rect fill="#ffffff" height="1" width="1" x="7" y="26" />
	<rect fill="#ffffff" height="1" width="1" x="8" y="26" />
	<rect fill="#ffffff" height="1" width="1" x="9" y="26" />
	<rect fill="#ffffff" height="1" width="1" x="10" y="26" />
	<rect fill="#ffffff" height="1" width="1" x="11" y="26" />
	<rect fill="#ffffff" height="1" width="1" x="12" y="26" />
	<rect fill="#ffffff" height="1" width="1" x="13" y="26" />
	<rect fill="#ffffff" height="1" width="1" x="14" y="26" />
	<rect fill="#ffffff" height="1" width="1" x="15" y="26" />
	<rect fill="#ffffff" height="1" width="1" x="16" y="26" />
	<rect fill="#ffffff" height="1" width="1" x="17" y="26" />
	<rect fill="#ffffff" height="1" width="1" x="18" y="26" />
	<rect fill="#ffffff" height="1" width="1" x="19" y="26" />
	<rect fill="#ffffff" height="1" width="1" x="20" y="26" />
	<rect fill="#ffffff" height="1" width="1" x="21" y="26" />
	<rect fill="#ffffff" height="1" width="1" x="22" y="26" />
	<rect fill="#ffffff" height="1" width="1" x="23" y="26" />
	<rect fill="#ffffff" height="1" width="1" x="24" y="26" />
	<rect fill="#ffffff" height="1" width="1" x="0" y="27" />
	<rect fill="#ffffff" height="1" width="1" x="1" y="27" />
	<rect fill="#ffffff" height="1" width="1" x="2" y="27" />
	<rect fill="#ffffff" height="1" width="1" x="3" y="27" />
	<rect fill="#ffffff" height="1" width="1" x="4" y="27" />
	<rect fill="#ffffff" height="1" width="1" x="5" y="27" />
	<rect fill="#ffffff" height="1" width="1" x="6" y="27" />
	<rect fill="#ffffff" height="1" width="1" x="7" y="27" />
	<rect fill="#ffffff" height="1" width="1" x="8" y="27" />
	<rect fill="#ffffff" height="1" width="1" x="9" y="27" />
	<rect fill="#ffffff" height="1" width="1" x="10" y="27" />
	<rect fill="#ffffff" height="1" width="1" x="11" y="27" />
	<rect fill="#ffffff" height="1" width="1" x="12" y="27" />
	<rect fill="#ffffff" height="1" width="1" x="13" y="27" />
	<rect fill="#ffffff" height="1" width="1" x="14" y="27" />
	<rect fill="#ffffff" height="1" width="1" x="15" y="27" />
	<rect fill="#ffffff" height="1" width="1" x="16" y="27" />
	<rect fill="#ffffff" height="1" width="1" x="17" y="27" />
	<rect fill="#ffffff" height="1" width="1" x="18" y="27" />
	<rect fill="#ffffff" height="1" width="1" x="19" y="27" />
	<rect fill="#ffffff" height="1" width="1" x="20" y="27" />
	<rect fill="#ffffff" height="1" width="1" x="21" y="27" />
	<rect fill="#ffffff" height="1" width="1" x="22" y="27" />
	<rect fill="#ffffff" height="1" width="1" x="23" y="27" />
	<rect fill="#ffffff" height="1" width="1" x="24" y="27" />
	<rect fill="#ffffff" height="1" width="1" x="0" y="28" />
	<rect fill="#ffffff" height="1" width="1" x="1" y="28" />
	<rect fill="#ffffff" height="1" width="1" x="2" y="28" />
	<rect fill="#ffffff" height="1" width="1" x="3" y="28" />
	<rect fill="#ffffff" height="1" width="1" x="4" y="28" />
	<rect fill="#ffffff" height="1" width="1" x="5" y="28" />
	<rect fill="#ffffff" height="1" width="1" x="6" y="28" />
	<rect fill="#ffffff" height="1" width="1" x="7" y="28" />
	<rect fill="#ffffff" height="1" width="1" x="8" y="28" />
	<rect fill="#ffffff" height="1" width="1" x="9" y="28" />
	<rect fill="#ffffff" height="1" width="1" x="10" y="28" />
	<rect fill="#ffffff" height="1" width="1" x="11" y="28" />
	<rect fill="#ffffff" height="1" width="1" x="12" y="28" />
	<rect fill="#ffffff" height="1" width="1" x="13" y="28" />
	<rect fill="#ffffff" height="1" width="1" x="14" y="28" />
	<rect fill="#ffffff" height="1" width="1" x="15" y="28" />
	<rect fill="#ffffff" height="1" width="1" x="16" y="28" />
	<rect fill="#ffffff" height="1" width="1" x="17" y="28" />
	<rect fill="#ffffff" height="1" width="1" x="18" y="28" />
	<rect fill="#ffffff" height="1" width="1" x="19" y="28" />
	<rect fill="#ffffff" height="1" width="1" x="20" y="28" />
	<rect fill="#ffffff" height="1" width="1" x="21" y="28" />
	<rect fill="#ffffff" height="1" width="1" x="22" y="28" />
	<rect fill="#ffffff" height="1" width="1" x="23" y="28" />
	<rect fill="#ffffff" height="1" width="1" x="24" y="28" />
	<rect fill="#ffffff" height="1" width="1" x="0" y="29" />
	<rect fill="#ffffff" height="1" width="1" x="1" y="29" />
	<rect fill="#ffffff" height="1" width="1" x="2" y="29" />
	<rect fill="#ffffff" height="1" width="1" x="3" y="29" />
	<rect fill="#ffffff" height="1" width="1" x="4" y="29" />
	<rect fill="#ffffff" height="1" width="1" x="5" y="29" />
	<rect fill="#ffffff" height="1" width="1" x="6" y="29" />
	<rect fill="#ffffff" height="1" width="1" x="7" y="29" />
	<rect fill="#ffffff" height="1" width="1" x="8" y="29" />
	<rect fill="#ffffff" height="1" width="1" x="9" y="29" />
	<rect fill="#ffffff" height="1" width="1" x="10" y="29" />
	<rect fill="#ffffff" height="1" width="1" x="11" y="29" />
	<rect fill="#ffffff" height="1" width="1" x="12" y="29" />
	<rect fill="#ffffff" height="1" width="1" x="13" y="29" />
	<rect fill="#ffffff" height="1" width="1" x="14" y="29" />
	<rect fill="#ffffff" height="1" width="1" x="15" y="29" />
	<rect fill="#ffffff" height="1" width="1" x="16" y="29" />
	<rect fill="#ffffff" height="1" width="1" x="17" y="29" />
	<rect fill="#ffffff" height="1" width="1" x="18" y="29" />
	<rect fill="#ffffff" height="1" width="1" x="19" y="29" />
	<rect fill="#ffffff" height="1" width="1" x="20" y="29" />
	<rect fill="#ffffff" height="1" width="1" x="21" y="29" />
	<rect fill="#ffffff" height="1" width="1" x="22" y="29" />
	<rect fill="#ffffff" height="1" width="1" x="23" y="29" />
	<rect fill="#ffffff" height="1" width="1" x="24" y="29" /></svg>